<?xml version="1.0" encoding="UTF-8"?>
<svg preserveAspectRatio="xMidYMid slice" xmlns="http://www.w3.org/2000/svg" xmlns:xlink="http://www.w3.org/1999/xlink" id="moy-park-logo" width="240px" height="176px" viewBox="0 0 95.678 70.804">
  <defs>
    <clipPath id="clip-path">
      <rect id="Rectangle_1102" data-name="Rectangle 1102" width="95.678" height="70.804" fill="#1a1a1a"></rect>
    </clipPath>
  </defs>
  <g id="Group_156" data-name="Group 156" transform="translate(0 0)" clip-path="url(#clip-path)">
    <path id="Path_263" data-name="Path 263" d="M96.495,3.5s-.987.387-2.448.813c-.193,8.048-1.357,25.061-7.3,41.206-3.979,10.819-9.634,16.406-18.334,18.116a76.031,76.031,0,0,1-14.308,1.149c-3.854,0-7.376-.18-9.707-.3-.957-.048-1.742-.088-2.309-.1-2.817-.079-4.865-.112-6.85-.112-6.673,0-14.837.344-29.279,2.837-.943.163-1.857.379-2.666.6-.043,2.541.013,4,.013,4a33.837,33.837,0,0,1,5.86-1.614c17.219-2.973,26.053-3.023,36.311-2.738,3.653.1,16.3,1.2,26.12-.728C80.4,64.9,85.54,59.173,89.245,49.1c8.141-22.132,7.249-45.6,7.249-45.6" transform="translate(-0.845 -0.902)" fill="#1a1a1a"></path>
    <path id="Path_264" data-name="Path 264" d="M32.84,55.771c-1.286.031-2.564,1.3-3.036,2.99a19.292,19.292,0,0,0-.586,2.959c-.056.414-.091.885-.156,1.354L29,63.543a3.906,3.906,0,0,0,1.656.345c1.977-.047,3.457-1.9,3.857-4.828.292-2.126-.319-3.324-1.668-3.29" transform="translate(-7.474 -14.376)" fill="#1a1a1a"></path>
    <path id="Path_265" data-name="Path 265" d="M54.027,54.724c-2.307.056-4,1.969-4.416,4.978-.318,2.322.191,3.384,1.63,3.347,1.349-.033,2.3-.908,2.873-2.658a23.855,23.855,0,0,0,1-4.9l.082-.607a3.239,3.239,0,0,0-1.17-.164" transform="translate(-12.765 -14.106)" fill="#1a1a1a"></path>
    <path id="Path_266" data-name="Path 266" d="M15.3,40.365c1.383-2.316,6-9.245,20.84-10.681C52.18,28.136,57.092,31.012,62.8,31.908c3.813.6,5.779-1.889,6.712-4.621a5.9,5.9,0,0,1-3.091.9c-2.187.053-3.379-.922-3.494-2.876a29.988,29.988,0,0,1,.056-3.779,11.3,11.3,0,0,0-.343-4.8,6.359,6.359,0,0,1,2.205-.4C66,16.3,66.7,16.5,67,16.914c.459.6.468,1.387.138,3.906-.5,3.923-.24,5.078,1.185,5.044,1.093-.025,1.89-.733,2.371-2.2a26.154,26.154,0,0,0,1.147-4.652,10.184,10.184,0,0,0,.14-2.671,7.2,7.2,0,0,1,1.57-.2c2.277-.056,2.751.435,2.458,2.5a35.5,35.5,0,0,1-3.267,9.535c-3.046,5.906-7.9,6.269-11.365,5.545-5.1-1.069-12.161-2.265-24.737-1.377-14.852,1.05-18.959,6.207-20.732,8.5-1.181,1.531-1.032.223-.608-.485m5.28-12.879a9.628,9.628,0,0,1,.492-1.565l1.138-2.95,1.154-3.08,1.119-3.236c.673-2.017,1.077-3.186,1.186-3.529,0-.027.053-.159.117-.4a3.422,3.422,0,0,0-.4-.989,5.045,5.045,0,0,1,2.006-.445,2.767,2.767,0,0,1,2.536.885c.395.6.569,1.274.948,3.451.382,2.149.45,2.515,1.012,5.081q.327,1.491.528,2.59l.186.812.41-.774,1.339-2.688,1.5-2.774,1.469-2.561c1.071-1.842,1.228-2.109,1.878-3.1-.12-.418-.166-.523-.317-.938a4.608,4.608,0,0,1,1.57-.3,3.207,3.207,0,0,1,2.648.932c.415.648.436.937.322,4.465-.015.525-.007,1.737.028,3.6l.045,4.1a15.973,15.973,0,0,0,.4,4.359,4.2,4.2,0,0,1-1.746.306c-2.282.056-3.079-.66-2.982-2.823l.065-2.343.015-2,.077-2.236.021-2.238.005-.894c-.827,1.414-1.147,1.974-1.839,3.253-1.082,1.948-2.23,4.133-2.6,4.879l-1.194,2.5-.254.533c.24.415.285.52.577.984a4.759,4.759,0,0,1-2.361.609,2.75,2.75,0,0,1-2.389-.859c-.419-.621-.614-1.352-1.028-3.71-.349-2.177-.63-3.563-.878-4.767-.266-1.283-.4-2.019-.435-2.2-.062-.208-.1-.549-.188-.993l-.274.874-.471,1.432-.84,2.548A28.334,28.334,0,0,0,23.9,26.273a6.778,6.778,0,0,0,.123,2.708,5.8,5.8,0,0,1-1.563.275c-1.412.034-2.046-.554-1.873-1.769M46.9,23.051c.56-3.932,3.551-6.48,7.783-6.584,4.115-.1,6.327,2,5.821,5.568-.575,4.04-3.569,6.584-7.829,6.691-4.021.1-6.277-2.136-5.775-5.675M69.743,50.49c-1.619.041-2.776-.867-4.464-3.58-1.153-1.815-1.224-1.951-1.724-2.873l-.091.661a28.684,28.684,0,0,0-.5,5.628,7.725,7.725,0,0,1-1.888.266c-1.676.043-2.369-.547-2.2-1.817.1-.691.292-1.906.655-3.676.137-.8.735-3.559.932-5.215a20.848,20.848,0,0,0,.252-4.658,8.736,8.736,0,0,1,2.164-.327c1.619-.04,2.334.63,2.138,2.038-.064.47-.173,1.048-.327,1.743-.232,1.023-.841,3.229-.876,3.48a3.011,3.011,0,0,1-.094.468,12.046,12.046,0,0,0,3.108-1.562c1.838-1.2,2.085-1.453,2.3-2.643.942-.105,1.094-.136,1.515-.147,1.136-.028,1.764.4,1.673,1.059-.094.69-.851,1.426-2.408,2.316-1.229.69-1.522.862-2.383,1.268l.191.356c1.62,2.766,2.561,3.955,3.565,4.452a2.3,2.3,0,0,0,1.341.243l.239-.006a3.145,3.145,0,0,1-3.121,2.526M58.5,40.031a5.7,5.7,0,0,1-.4,1.167l-.217.5a1.889,1.889,0,0,0-1.369-.46,3.884,3.884,0,0,0-2.56,1.466,7.469,7.469,0,0,0-1.569,4.029,10.365,10.365,0,0,0-.046,3.828,7.017,7.017,0,0,1-1.68.259c-1.766.046-2.38-.491-2.195-1.844.085-.608.247-1.574.486-2.875.14-.581.214-1.133.3-1.712a18.621,18.621,0,0,0,.168-5.567,8.148,8.148,0,0,1,1.861-.291c1.648-.041,2.266.661,2.031,2.373-.029.22-.113.607-.211,1.105,1.507-2.486,2.767-3.619,4.023-3.651A1.323,1.323,0,0,1,58.5,40.031M45.926,50.551a6.115,6.115,0,0,1-2.529.584c-1.407.035-1.913-.421-2.048-1.824a7.206,7.206,0,0,1-4.784,2.019c-2.9.072-4.278-1.656-3.846-4.8.649-4.723,4.3-7.84,9.3-7.964a10.163,10.163,0,0,1,4.634.824A41.776,41.776,0,0,0,45.326,46a6.357,6.357,0,0,0,.6,4.555M31.257,44.139c-.571,4.143-3.749,7.3-7.492,7.395a6.207,6.207,0,0,1-2.485-.38l-.073.525a40.311,40.311,0,0,0-.483,5.9,11.694,11.694,0,0,1-1.967.211c-1.738.044-2.46-.572-2.265-1.98.053-.387.311-1.6.738-3.624.226-1,.473-2.572.793-4.92.661-4.805.7-5.768.367-7.658a7.337,7.337,0,0,1,2.078-.353c1.617-.042,2.335.6,2.141,2.01a6.4,6.4,0,0,1,4.7-2.288c2.907-.071,4.395,1.9,3.946,5.159M34.4,61.5c2,0,4.067.033,6.9.112.577.017,1.376.058,2.351.108,2.312.117,5.8.3,9.613.3a74.166,74.166,0,0,0,13.954-1.116C75.32,59.314,80.39,54.249,84.171,43.97,91.085,25.176,91.423,5.164,91.385,0a34.306,34.306,0,0,1-4.8,1.225c-14.577,2.517-22.84,2.864-29.6,2.864-2.513,0-4.9-.057-6.895-.112-.577-.016-1.374-.057-2.347-.107-2.314-.119-5.811-.3-9.621-.3a74.208,74.208,0,0,0-13.95,1.116C16.069,6.28,11,11.345,7.217,21.622.3,40.428-.036,60.431,0,65.594a34.216,34.216,0,0,1,4.8-1.225C19.382,61.851,27.642,61.5,34.4,61.5" transform="translate(0 0)" fill="#1a1a1a"></path>
    <path id="Path_267" data-name="Path 267" d="M70.833,33.183c1.711-.042,2.745-1.434,3.139-4.207.4-2.8-.253-4.126-1.96-4.085C70.241,24.936,69.177,26.3,68.8,29c-.413,2.9.235,4.231,2.037,4.186" transform="translate(-17.703 -6.416)" fill="#1a1a1a"></path>
  </g>
</svg>
