<?xml version="1.0" encoding="UTF-8"?>
<svg xmlns="http://www.w3.org/2000/svg" xmlns:xlink="http://www.w3.org/1999/xlink" id="kainos-logo" width="141.297" height="32.504" viewBox="0 0 141.297 32.504">
  <defs>
    <clipPath id="clip-path">
      <rect id="Rectangle_1106" data-name="Rectangle 1106" width="141.296" height="32.504" fill="none"></rect>
    </clipPath>
  </defs>
  <g id="Group_180" data-name="Group 180" transform="translate(0 0)" clip-path="url(#clip-path)">
    <path id="Path_288" data-name="Path 288" d="M17.256,19.547c0-6.535,4.555-11.42,10.562-11.42a8.209,8.209,0,0,1,7.656,4.225v-3.7H39.5V30.372H35.474v-3.7A8.21,8.21,0,0,1,27.818,30.9c-6.006,0-10.562-4.885-10.562-11.353m18.349,0c0-4.621-2.773-7.855-7-7.855-4.291,0-7.128,3.234-7.128,7.855,0,4.554,2.837,7.789,7.128,7.789,4.224,0,7-3.235,7-7.789" transform="translate(3.403 1.603)" fill="#151518"></path>
    <rect id="Rectangle_1105" data-name="Rectangle 1105" width="4.092" height="21.716" transform="translate(49.765 10.259)" fill="#151518"></rect>
    <path id="Path_289" data-name="Path 289" d="M40.962,4.762a2.773,2.773,0,1,1,2.771,2.771,2.788,2.788,0,0,1-2.771-2.771" transform="translate(8.077 0.393)" fill="#151518"></path>
    <path id="Path_290" data-name="Path 290" d="M50.719,8.656h4.026v3.5C56.131,9.514,58.9,8.128,62.2,8.128c4.753,0,8.317,3.036,8.317,8.912V30.372H66.494V17.435c0-3.829-1.848-5.676-5.281-5.676-3.894,0-6.468,2.441-6.468,6.6V30.372H50.719Z" transform="translate(10.001 1.603)" fill="#151518"></path>
    <path id="Path_291" data-name="Path 291" d="M93.5,26.016l2.9-2.046a7.137,7.137,0,0,0,6.4,3.5c2.771,0,4.355-1.121,4.355-2.9,0-1.914-1.518-2.706-5.28-3.762-4.291-1.189-6.865-2.839-6.865-6.666,0-3.565,2.839-6.007,7.128-6.007a8.689,8.689,0,0,1,7.458,3.5L106.9,13.871a5.46,5.46,0,0,0-4.686-2.311c-2.179,0-3.434,1.057-3.434,2.443,0,1.913,1.386,2.441,4.753,3.3,4.62,1.188,7.524,3.1,7.524,7.062,0,4.092-3.1,6.535-8.25,6.535A10.633,10.633,0,0,1,93.5,26.016" transform="translate(18.436 1.603)" fill="#151518"></path>
    <path id="Path_292" data-name="Path 292" d="M0,0V31.974H4.027V22.635l9.635,9.309h5.412L7.988,21.163,19.075,10.225h-5.4L4.027,19.537V0Z" transform="translate(0 0)" fill="#151518"></path>
    <path id="Path_293" data-name="Path 293" d="M71.569,19.171a11.82,11.82,0,1,1,11.82,11.821,11.82,11.82,0,0,1-11.82-11.821" transform="translate(14.112 1.45)" fill="#151518"></path>
    <path id="Path_294" data-name="Path 294" d="M115.353,10.07a1.085,1.085,0,0,1,.409.074.954.954,0,0,1,.314.2.882.882,0,0,1,.2.3.959.959,0,0,1,.068.363,1.022,1.022,0,0,1-.126.517.8.8,0,0,1-.409.332v.01a.568.568,0,0,1,.227.116.65.65,0,0,1,.147.184.924.924,0,0,1,.083.235,2.356,2.356,0,0,1,.036.256c0,.054.006.117.01.189s.008.147.016.223a1.612,1.612,0,0,0,.038.215.515.515,0,0,0,.078.174H115.7a1.3,1.3,0,0,1-.075-.384c-.01-.148-.024-.29-.043-.426a.67.67,0,0,0-.162-.389.558.558,0,0,0-.4-.123h-.745v1.323h-.743V10.07Zm-.266,1.531a.565.565,0,0,0,.384-.114.472.472,0,0,0,.128-.37.453.453,0,0,0-.128-.358.571.571,0,0,0-.384-.111h-.815V11.6Z" transform="translate(22.386 1.986)" fill="#151518"></path>
    <path id="Path_295" data-name="Path 295" d="M115.3,16.221a4.067,4.067,0,1,1,4.068-4.067,4.072,4.072,0,0,1-4.068,4.067m0-7.262a3.2,3.2,0,1,0,3.2,3.2,3.2,3.2,0,0,0-3.2-3.2" transform="translate(21.933 1.595)" fill="#151518"></path>
  </g>
</svg>
