<?xml version="1.0" encoding="utf-8"?>
<!-- Generator: Adobe Illustrator 23.1.1, SVG Export Plug-In . SVG Version: 6.00 Build 0)  -->
<svg version="1.1" id="Layer_1" xmlns="http://www.w3.org/2000/svg" xmlns:xlink="http://www.w3.org/1999/xlink" x="0px" y="0px"
	 viewBox="0 0 25 19.7" style="enable-background:new 0 0 25 19.7;" xml:space="preserve">
<style type="text/css">
	.st0{fill:#FFFFFF;}
</style>
<title>gracecoote-logo-white</title>
<g>
	<g>
		<g id="Layer_2-2">
			<path class="st0" d="M8.9,11.3H6.8C4.7,11.3,3,9.6,3,7.5l0,0V6.8c0-0.6,0.1-1.1,0.3-1.6l0,0C3.4,5,3.5,4.8,3.6,4.6
				C4.3,3.6,5.5,3,6.7,3h2.5c0.7,0,1.4-0.3,1.8-0.8l0,0l1-1.6c0.2-0.3,0.1-0.4-0.2-0.4H7.1C3.2,0.1,0,3.2,0,7.1l0,0
				c0,3.2,2.2,6.1,5.3,6.9l0,0c0.6,0.2,1.2,0.2,1.8,0.2h1c0.8,0,1.4,0.6,1.4,1.4v3.8c0,0.1,0.1,0.3,0.3,0.3c0.1,0,0.1,0,0.2-0.1
				l1.3-1l0,0c0.5-0.5,0.9-1.1,0.9-1.8v-2.3C12.1,12.7,10.7,11.3,8.9,11.3z"/>
			<path class="st0" d="M18.2,0h-5.1c-0.1,0-0.3,0.1-0.3,0.2s0,0.2,0.1,0.2l1,1.6c0.5,0.6,1.1,0.9,1.8,0.9h2.5
				c2.1,0,3.8,1.6,3.8,3.7v0.8l0,0c0,2.1-1.7,3.8-3.8,3.8l0,0h-2.4c-0.7,0-1.4,0.3-1.8,0.9l-1,1.6c-0.1,0.1-0.1,0.3,0,0.4
				c0.1,0.1,0.1,0.1,0.2,0.1h5.1c3.7,0,6.7-3,6.8-6.7V6.8C25,3,22,0,18.2,0L18.2,0z"/>
		</g>
	</g>
</g>
</svg>
