<?xml version="1.0" encoding="UTF-8"?>
<svg preserveAspectRatio="xMidYMid slice" xmlns="http://www.w3.org/2000/svg" xmlns:xlink="http://www.w3.org/1999/xlink" width="34px" height="18px" viewBox="0 0 110.356 61.061">
  <defs>
    <clipPath id="clip-path">
      <path id="Path_262" data-name="Path 262" d="M0,7.571H110.356V-53.49H0Z" transform="translate(0 53.49)" fill="#1a1a1a"></path>
    </clipPath>
  </defs>
  <g id="uu-logo" clip-path="url(#clip-path)">
    <g id="Group_152" data-name="Group 152" transform="translate(40.384 23.857)">
      <path id="Path_260" data-name="Path 260" d="M8.676,2.018H6.3L4.466,7.752H4.432L2.538,2.018H.09L3.023,9.875a1.349,1.349,0,0,1,.1.517,1.134,1.134,0,0,1-.219.678.885.885,0,0,1-.674.357,5.026,5.026,0,0,1-.68-.014c-.226-.023-.446-.043-.666-.063v1.893c.24.022.474.042.707.058s.467.023.707.023a3.341,3.341,0,0,0,1.844-.436,2.867,2.867,0,0,0,1.039-1.461ZM-.729,10.456a5.2,5.2,0,0,0,.648-.064V8.611c-.107.021-.221.035-.34.048a3.57,3.57,0,0,1-.372.015,1.132,1.132,0,0,1-.779-.192,1.139,1.139,0,0,1-.193-.78V3.554H-.081V2.017H-1.765V-.5h-2.3V8.5a2.141,2.141,0,0,0,.208,1.021,1.528,1.528,0,0,0,.575.6,2.368,2.368,0,0,0,.842.282,6.278,6.278,0,0,0,1.015.074q.337,0,.7-.017M-7.489.72h2.3v-1.9h-2.3Zm2.3,1.3h-2.3v8.375h2.3ZM-8.573,9.089A2.669,2.669,0,0,0-8.238,7.7a1.959,1.959,0,0,0-.228-.981,2.1,2.1,0,0,0-.6-.664,3.369,3.369,0,0,0-.852-.43,9.616,9.616,0,0,0-.979-.274c-.325-.075-.643-.148-.955-.21a6.924,6.924,0,0,1-.834-.221,1.662,1.662,0,0,1-.59-.316.618.618,0,0,1-.228-.5.62.62,0,0,1,.129-.413.87.87,0,0,1,.316-.236,1.444,1.444,0,0,1,.413-.105,3.985,3.985,0,0,1,.42-.022,2.26,2.26,0,0,1,1.068.233,1,1,0,0,1,.5.9h2.188a2.736,2.736,0,0,0-.4-1.288A2.615,2.615,0,0,0-9.7,2.357a3.492,3.492,0,0,0-1.144-.437,6.58,6.58,0,0,0-1.318-.129,7.2,7.2,0,0,0-1.33.12,3.875,3.875,0,0,0-1.166.42,2.318,2.318,0,0,0-.833.818,2.549,2.549,0,0,0-.316,1.332,1.768,1.768,0,0,0,.228.928,1.947,1.947,0,0,0,.6.632,3.348,3.348,0,0,0,.853.406c.32.1.645.189.981.265a14.153,14.153,0,0,1,1.919.522c.457.171.688.43.688.775a.866.866,0,0,1-.145.513,1.07,1.07,0,0,1-.365.321,1.632,1.632,0,0,1-.484.182,2.5,2.5,0,0,1-.511.055A2.613,2.613,0,0,1-12.7,9a1.709,1.709,0,0,1-.558-.253,1.3,1.3,0,0,1-.4-.437,1.257,1.257,0,0,1-.153-.638H-16a2.846,2.846,0,0,0,.381,1.4,2.806,2.806,0,0,0,.889.9,3.746,3.746,0,0,0,1.24.485,6.968,6.968,0,0,0,1.425.147,7.091,7.091,0,0,0,1.4-.139,3.548,3.548,0,0,0,1.223-.476,2.658,2.658,0,0,0,.866-.9m-8.149-5.137a3.814,3.814,0,0,1,.388.058V1.869a1.759,1.759,0,0,0-.5-.08,2.746,2.746,0,0,0-.84.13,3.1,3.1,0,0,0-.765.364,2.883,2.883,0,0,0-.63.566,2.865,2.865,0,0,0-.438.721h-.032V2.018h-2.186v8.375h2.3V6.619a4.671,4.671,0,0,1,.114-1.056,2.262,2.262,0,0,1,.381-.849,1.863,1.863,0,0,1,.705-.576,2.441,2.441,0,0,1,1.07-.209c.138,0,.284.008.436.023M-20.278-9.126c.153.016.282.035.389.056v-2.138a1.77,1.77,0,0,0-.5-.08,2.72,2.72,0,0,0-.842.129,3.147,3.147,0,0,0-.763.365,2.912,2.912,0,0,0-.631.566,2.79,2.79,0,0,0-.437.72H-23.1v-1.554h-2.188v8.375h2.3V-6.462a4.717,4.717,0,0,1,.112-1.053,2.314,2.314,0,0,1,.381-.85,1.867,1.867,0,0,1,.705-.575,2.454,2.454,0,0,1,1.07-.211,4.14,4.14,0,0,1,.436.025m-11.8,2.81h6.041A5.8,5.8,0,0,0-26.2-8.178a4.573,4.573,0,0,0-.735-1.586,3.663,3.663,0,0,0-1.3-1.11,3.973,3.973,0,0,0-1.862-.414,4.327,4.327,0,0,0-1.742.339,4.052,4.052,0,0,0-1.352.931,4.106,4.106,0,0,0-.878,1.4,4.909,4.909,0,0,0-.307,1.75,5.092,5.092,0,0,0,.3,1.783,4.057,4.057,0,0,0,.853,1.394,3.688,3.688,0,0,0,1.344.9,4.8,4.8,0,0,0,1.783.314,4.386,4.386,0,0,0,2.427-.647,3.837,3.837,0,0,0,1.492-2.155H-28.21a1.448,1.448,0,0,1-.616.739,2.052,2.052,0,0,1-1.2.348,2.066,2.066,0,0,1-1.491-.5,2.331,2.331,0,0,1-.566-1.621m0-1.458a2.556,2.556,0,0,1,.105-.551,1.653,1.653,0,0,1,.307-.581,1.733,1.733,0,0,1,.583-.462,2,2,0,0,1,.917-.187,1.622,1.622,0,0,1,1.255.452,2.676,2.676,0,0,1,.575,1.33ZM-35.2-2.623a5.27,5.27,0,0,0,.65-.063V-4.467a3.107,3.107,0,0,1-.341.049c-.119.011-.243.017-.372.017a1.123,1.123,0,0,1-.779-.2,1.125,1.125,0,0,1-.194-.777V-9.523h1.686v-1.538h-1.686v-2.513h-2.3v8.991a2.113,2.113,0,0,0,.213,1.022,1.464,1.464,0,0,0,.575.6,2.434,2.434,0,0,0,.84.285A6.643,6.643,0,0,0-35.9-2.6q.342,0,.7-.018m-6.155,13.015h2.3V2.017h-2.3Zm0-9.672h2.3v-1.9h-2.3Zm1.725-4.711A2.656,2.656,0,0,0-39.3-5.375a1.937,1.937,0,0,0-.228-.982,2.09,2.09,0,0,0-.6-.664,3.184,3.184,0,0,0-.852-.427,9.206,9.206,0,0,0-.981-.276c-.323-.074-.643-.146-.955-.212a6.542,6.542,0,0,1-.834-.219,1.715,1.715,0,0,1-.59-.314.63.63,0,0,1-.227-.5.625.625,0,0,1,.129-.414.841.841,0,0,1,.317-.233,1.332,1.332,0,0,1,.412-.106,3.756,3.756,0,0,1,.422-.023,2.3,2.3,0,0,1,1.068.234,1.009,1.009,0,0,1,.5.9h2.185A2.736,2.736,0,0,0-39.922-9.9a2.7,2.7,0,0,0-.837-.82,3.539,3.539,0,0,0-1.14-.436,6.622,6.622,0,0,0-1.322-.129,7.18,7.18,0,0,0-1.328.121,3.611,3.611,0,0,0-1.168.421,2.327,2.327,0,0,0-.834.817,2.529,2.529,0,0,0-.315,1.33,1.777,1.777,0,0,0,.226.929,1.993,1.993,0,0,0,.6.635,3.27,3.27,0,0,0,.85.4c.318.1.646.192.981.267a14.2,14.2,0,0,1,1.918.521c.462.174.692.43.692.776a.845.845,0,0,1-.147.511,1.114,1.114,0,0,1-.366.324,1.694,1.694,0,0,1-.484.176A2.328,2.328,0,0,1-43.108-4a2.633,2.633,0,0,1-.654-.08,1.728,1.728,0,0,1-.559-.252,1.361,1.361,0,0,1-.4-.436,1.24,1.24,0,0,1-.155-.642H-47.06a2.791,2.791,0,0,0,.382,1.4,2.742,2.742,0,0,0,.888.9,3.743,3.743,0,0,0,1.241.485,6.78,6.78,0,0,0,1.425.147,6.975,6.975,0,0,0,1.4-.138A3.554,3.554,0,0,0-40.5-3.091a2.654,2.654,0,0,0,.868-.9M-46.94,2.121a2.653,2.653,0,0,0-1.135,1.063h-.048V2.018H-50.31v8.375h2.3V6a3.1,3.1,0,0,1,.42-1.837,1.6,1.6,0,0,1,1.364-.56,1.249,1.249,0,0,1,1.148.513,2.93,2.93,0,0,1,.323,1.547v4.731h2.3V5.239a6.713,6.713,0,0,0-.14-1.418,2.727,2.727,0,0,0-.476-1.087A2.288,2.288,0,0,0-44,2.041a3.921,3.921,0,0,0-1.515-.251,3.29,3.29,0,0,0-1.426.331m-3.366-4.806h2.3V-14.256h-2.3Zm-2.436,12.2A4.386,4.386,0,0,0-51.43,6.019v-7.2h-2.543v7.2a2.883,2.883,0,0,1-.519,1.9,2.381,2.381,0,0,1-1.879.611,2.9,2.9,0,0,1-1.239-.223,1.856,1.856,0,0,1-.721-.566,1.9,1.9,0,0,1-.339-.8,5.139,5.139,0,0,1-.08-.921v-7.2H-61.3v7.2a4.43,4.43,0,0,0,1.289,3.5,5.338,5.338,0,0,0,3.636,1.132,5.351,5.351,0,0,0,3.629-1.14m0-13.079A4.386,4.386,0,0,0-51.43-7.061v-7.194h-2.543v7.194a2.9,2.9,0,0,1-.519,1.908,2.394,2.394,0,0,1-1.879.6,2.965,2.965,0,0,1-1.239-.217,1.881,1.881,0,0,1-.721-.568,1.842,1.842,0,0,1-.339-.8,5.156,5.156,0,0,1-.08-.924v-7.194H-61.3v7.194a4.417,4.417,0,0,0,1.289,3.5,5.322,5.322,0,0,0,3.636,1.136,5.358,5.358,0,0,0,3.629-1.142m16.655,5.584H-38.5l2.869,8.377h2.559l2.836-8.377h-2.284l-1.767,5.72h-.031Zm5.752,2.446a4.88,4.88,0,0,0-.307,1.748,5.128,5.128,0,0,0,.3,1.784,4.05,4.05,0,0,0,.85,1.393,3.686,3.686,0,0,0,1.342.9,4.7,4.7,0,0,0,1.78.316,4.371,4.371,0,0,0,2.425-.646A3.851,3.851,0,0,0-22.458,7.8h-2.023a1.424,1.424,0,0,1-.614.736,2.046,2.046,0,0,1-1.2.352,2.057,2.057,0,0,1-1.487-.5,2.313,2.313,0,0,1-.567-1.621h6.035A5.94,5.94,0,0,0-22.476,4.9a4.524,4.524,0,0,0-.735-1.586,3.662,3.662,0,0,0-1.3-1.11,3.951,3.951,0,0,0-1.857-.413,4.331,4.331,0,0,0-1.74.338,4.114,4.114,0,0,0-1.349.933,4.061,4.061,0,0,0-.874,1.4m1.989.842a2.717,2.717,0,0,1,.105-.551,1.667,1.667,0,0,1,.308-.583,1.731,1.731,0,0,1,.581-.463,2.045,2.045,0,0,1,.913-.184,1.619,1.619,0,0,1,1.256.453,2.676,2.676,0,0,1,.574,1.329Z" transform="translate(61.296 14.256)" fill="#1a1a1a"></path>
    </g>
    <g id="Group_153" data-name="Group 153" transform="translate(0 0.001)">
      <path id="Path_261" data-name="Path 261" d="M7.083,0H.929A8.682,8.682,0,0,0-2.353,1.3c-.142.091-.276.184-.4.273a7.526,7.526,0,0,1,2.294,6.1c1.3-3,2.329-6.624,7.546-7.677M-.462,7.677C-3.984.632-9.383,0-9.383,0h-5.081s5.4.632,8.921,7.677Zm-8.8,49.353a21.049,21.049,0,0,1-6.933,1.047c-3.974,0-7.987-1.139-9.985-2.838l-.017-.014a9.2,9.2,0,0,1-2.5-6.832V11.857C-28.693,2.7-35.353,0-38.34,0h-11.7a6.012,6.012,0,0,1,3.718,5.552l0,39.271c0,3.945.688,5.86,2.249,7.878,3.968,5.075,12.52,8.36,21.784,8.36A25.017,25.017,0,0,0-9.2,57.932,13.622,13.622,0,0,0-4.71,54.37s.059-.079.025-.108-.106.058-.106.058a11.53,11.53,0,0,1-4.467,2.71" transform="translate(50.041 0)" fill="#1a1a1a"></path>
    </g>
  </g>
</svg>
