<?xml version="1.0" encoding="UTF-8"?>
<svg preserveAspectRatio="xMidYMid slice" xmlns="http://www.w3.org/2000/svg" xmlns:xlink="http://www.w3.org/1999/xlink" id="ulster-orchestra-logo" width="120px" height="41px" viewBox="0 0 187.143 64.287">
  <defs>
    <clipPath id="clip-path">
      <path id="Path_285" data-name="Path 285" d="M0,18.933H187.143V-45.354H0Z" transform="translate(0 45.354)" fill="#1a1a1a"></path>
    </clipPath>
  </defs>
  <g id="Group_175" data-name="Group 175" transform="translate(0 0)" clip-path="url(#clip-path)">
    <g id="Group_158" data-name="Group 158" transform="translate(0 0)">
      <path id="Path_268" data-name="Path 268" d="M1.938,9.22c-.01-.038-.021-.078-.033-.119C-.05,6.868.057,1.888,1.343-2.534A27.953,27.953,0,0,0-.616,5.421c-.017.275-.02.547-.017.839a13.51,13.51,0,0,0,2.017,2.5,4.026,4.026,0,0,0,.554.462M-1.533,4.2A14.854,14.854,0,0,1-1.17,1.991,42.811,42.811,0,0,1,2.821-7.438,24.742,24.742,0,0,0-.46-2.291C-1.312-.224-2.168,1.827-1.533,4.2M8.138-13.566C4.942-8.867,1.027-2.23,1.726,4.544A32.983,32.983,0,0,1,5.162-6.138C10.242-16.005,18.8-21.308,17.1-21.381a26.071,26.071,0,0,0-5.05,3.885c-.845.785-2.289,2.211-3.909,3.931m30.2,10.451a43,43,0,0,1-5.6,7.257C26.316,10.744,11.4,18.011,4.5,15.356a14.3,14.3,0,0,1-1.351-.6c1.993,1.722,4.907,2.909,9.038,2.907,19.161,0,42.477-32.752,34.339-34.631a1,1,0,0,1,.475.919c0,2.432-3.748,7.578-8.655,12.939m-.387-11.864a20.982,20.982,0,0,0,.746-2.2c.118-.544.077-1.062-.38-.757-.164.109-.61,1.446-1.529,3.446.4-.187.791-.35,1.164-.485m2.968,6.924c5.143-5.8,7.617-10.221,1.8-8.25l.118-.516c18.044-7.763-4.142,38.85-33.5,35.38-5.311-.628-8.16-3.2-9.606-6.19-4.3-4.031-6.451-11.014-1.62-20.037,6.41-11.975,13.494-13.6,13.87-12.261.108.387-.269,1.124-.934,2.147h0c4.054-3.534,6.571-4.724,7.174-4.179C19.668-20.65,12.141-16.491,7.194-6,5-1.346,2.792,4.849,3.34,8.707,3.851,12.3,12.9,7.632,17.855,4.055A60.743,60.743,0,0,1,25.62-6.193a45.056,45.056,0,0,1,9.926-7.673c1.32-2.309,1.925-3.926,2.318-4.471.924-1.28,1.953-1.12,1.651,1a14.824,14.824,0,0,1-.482,2.03,2.656,2.656,0,0,1,2.624.4c1.015,1.08.6,3.707-.734,6.852m-6.9-3.369a63.169,63.169,0,0,0-8.381,7.256,65.611,65.611,0,0,0-5.48,6.516C22.279.734,24.326-.976,26.187-2.62a46.331,46.331,0,0,0,7.84-8.8m3.331-2.089c-.459.245-.95.527-1.461.845A37.576,37.576,0,0,1,26.565-.875a109.437,109.437,0,0,1-8.924,6.768C16.364,7.774,15.6,9.037,15.6,9.037l.122-1.191s.2-.4.57-1.084a25.565,25.565,0,0,1-9.321,3.931c-.013,0-.143.021-.194.027,4.832.845,12.831-.937,19.5-7.851A55.79,55.79,0,0,0,37.358-13.513M38.42-5.336C40.8-9.5,42.057-13.376,41.354-14.3c-.374-.492-1.34-.4-2.7.166C37.239-10.138,33.823-3.265,26.107,4.613,17.475,13.43,9.243,12.333,4.973,10.8a8.549,8.549,0,0,1-1.1-.123,3.276,3.276,0,0,0,2.065,1.647c5.082,1.442,12.591.529,22.9-8.5,3.168-2.771,6.61-6.047,9.579-9.162M19.2,11.634c-4.978,1.926-9.856,2.483-13.49,1.522A4.949,4.949,0,0,1,2.274,10.2,7.1,7.1,0,0,1,.931,9.441,10.852,10.852,0,0,1-.437,8.292a11.489,11.489,0,0,0,2.184,4.989A16.158,16.158,0,0,0,4.33,14.665c3.639,1.558,9.367-.21,14.869-3.031m-20.01-.585A15.285,15.285,0,0,1-1.59,6.9c-2.824-4.247-.524-9.215.366-10.825C.722-7.442,4.065-11.186,7.69-14.683c1.739-2.469,3.025-4.061,2.739-4.455C9.822-19.973,4.277-17.21-.48-7.489-4.8,1.342-4.057,7.281-.811,11.049M27.195-17.946a2.389,2.389,0,0,0-.524-.951C24.027-21.849,9.784-15.425,10.7-6.5c1.065,10.309,20.175-3.668,17.229-10.488a2.343,2.343,0,0,0-.738-.957M19.2-8.422c1.884-1.731,4.439-4.748,3.267-7.236a2.256,2.256,0,0,0-.913-1.038c2.112-.936,4.089-1.245,5.092-.52-.2,2.444-3.66,6.491-7.446,8.794M12.26-9.033a1.836,1.836,0,0,0,.761,1.515l.632-.1a5.232,5.232,0,0,1,.953-3.476,2.7,2.7,0,0,1,1.23-.488c.984.051.215,1.624-.269,2.147l.523-.225c.73-.785,1.067-2.319-.13-2.319a2.5,2.5,0,0,0-.944.291,17.048,17.048,0,0,1,5.729-4.627,1.729,1.729,0,0,1,1.108.893c1.249,2.245-1.372,5.892-4.111,7.786-1.911.9-3.81,1.262-5.33.659-.972-.383-.79-1.213-.153-2.061m.729-.808c.194-.184.4-.369.611-.536A4.184,4.184,0,0,0,13.09-8L13.013-8.1a1.926,1.926,0,0,1-.024-1.741m.327-.761c1.133-2.234,3.9-4.991,6.079-5.629a18.149,18.149,0,0,0-5.388,5.124c-.231.155-.465.323-.692.5m-1,.931c-1.03,1.158-1.459,2.493.16,3.335,4.166,2.167,13.776-5.247,14.74-10.088.014.044.028.091.04.139C28.523-11.373,13.272.7,11.279-6.563c-1.7-6.2,11.521-14.726,14.783-12.2a1.484,1.484,0,0,1,.383.441c-1.461-.448-3.641.173-5.814,1.355-2.934-.22-7.732,4.238-8.311,7.3" transform="translate(4.643 22.086)" fill="#1a1a1a"></path>
    </g>
    <g id="Group_159" data-name="Group 159" transform="translate(59.526 4.097)">
      <path id="Path_269" data-name="Path 269" d="M2.1,4.728H.355c-3.24,0-5.385-1.87-5.385-4.686V-11.077c0-.2.075-.249.225-.249H-1.19c.1,0,.224.05.224.249V.042c0,.622.4,1.021,1.321,1.021H2.1c.873,0,1.247-.4,1.247-1.021V-11.077c0-.2.1-.249.224-.249H7.235c.15,0,.225.05.225.249V.042c0,2.816-2.17,4.686-5.361,4.686" transform="translate(5.03 11.326)" fill="#1a1a1a"></path>
    </g>
    <g id="Group_160" data-name="Group 160" transform="translate(74.584 4.097)">
      <path id="Path_270" data-name="Path 270" d="M3.12,4.633H-7.25c-.125,0-.224-.05-.224-.249V-10.849c0-.2.1-.248.224-.248h3.69a.232.232,0,0,1,.249.248V.693c0,.174.075.274.3.274H3.12c.125,0,.249.051.249.225V4.383c0,.2-.1.249-.249.249" transform="translate(7.474 11.097)" fill="#1a1a1a"></path>
    </g>
    <g id="Group_161" data-name="Group 161" transform="translate(85.82 3.772)">
      <path id="Path_271" data-name="Path 271" d="M1.764,4.824H.991A5.718,5.718,0,0,1-3.122,3.3a5.487,5.487,0,0,1-1-1.273c-.1-.149-.2-.373.05-.523L-1.478-.212a.319.319,0,0,1,.5.075A2.1,2.1,0,0,0,.94,1.158h.774A1.123,1.123,0,0,0,2.986.013c0-1.123-1.247-1.271-2.917-1.844C-2.6-2.754-4.094-3.851-4.094-6.618c0-3.091,2.069-4.937,5.484-4.937h.374a5.8,5.8,0,0,1,3.914,1.321,5.636,5.636,0,0,1,1.2,1.446c.1.15.2.4-.05.549L4.232-6.519a.318.318,0,0,1-.5-.075,2.1,2.1,0,0,0-1.919-1.3H1.39c-.748,0-1.246.35-1.246,1.148,0,.972,1.521,1.321,2.767,1.719C5.828-4.1,7.223-2.879,7.223-.086c0,3.065-1.943,4.91-5.459,4.91" transform="translate(4.226 11.555)" fill="#1a1a1a"></path>
    </g>
    <g id="Group_162" data-name="Group 162" transform="translate(97.768 4.097)">
      <path id="Path_272" data-name="Path 272" d="M3.113,1.079H.321c-.249,0-.3.1-.3.274V12.9a.222.222,0,0,1-.249.249H-3.892c-.125,0-.224-.05-.224-.249V1.353c0-.174-.05-.274-.325-.274H-7.208c-.126,0-.249-.05-.249-.224V-2.336a.222.222,0,0,1,.249-.249H3.113a.228.228,0,0,1,.225.249V.855a.2.2,0,0,1-.225.224" transform="translate(7.457 2.585)" fill="#1a1a1a"></path>
    </g>
    <g id="Group_163" data-name="Group 163" transform="translate(110.134 4.097)">
      <path id="Path_273" data-name="Path 273" d="M3.12,4.633H-7.25c-.125,0-.224-.05-.224-.249V-10.849c0-.2.1-.248.224-.248H3.12a.232.232,0,0,1,.249.248v3.192c0,.173-.1.224-.249.224H-3.012c-.224,0-.3.1-.3.274v1.721c0,.174.075.274.3.274H2.023c.125,0,.249.05.249.224v3.216c0,.174-.125.225-.249.225H-3.012c-.224,0-.3.1-.3.274V.693c0,.174.075.274.3.274H3.12c.126,0,.249.051.249.225V4.383c0,.2-.1.249-.249.249" transform="translate(7.474 11.097)" fill="#1a1a1a"></path>
    </g>
    <g id="Group_164" data-name="Group 164" transform="translate(122.923 4.097)">
      <path id="Path_274" data-name="Path 274" d="M3.774,4.633H-.116A.268.268,0,0,1-.34,4.458L-2.633-1.326A.231.231,0,0,0-2.857-1.5H-4.578c-.224,0-.3.1-.3.274V4.383a.222.222,0,0,1-.248.249h-3.69c-.125,0-.225-.05-.225-.249V-10.849c0-.2.1-.248.225-.248h6.954C1.405-11.1,3.5-9.229,3.5-6.161v.224A3.948,3.948,0,0,1,1.68-2.5c-.224.149-.2.325-.126.549L4,4.309c.075.173.026.323-.224.323M-.613-6.387c0-.672-.424-1.046-1.247-1.046H-4.578c-.224,0-.3.1-.3.274V-5.19c0,.176.075.275.3.275h2.717c.774,0,1.247-.325,1.247-1Z" transform="translate(9.04 11.097)" fill="#1a1a1a"></path>
    </g>
    <g id="Group_165" data-name="Group 165" transform="translate(57.945 21.991)">
      <path id="Path_275" data-name="Path 275" d="M1.542,4.772H.793c-2.717,0-4.486-1.7-4.486-4.238V-7.194c0-2.543,1.769-4.238,4.486-4.238h.748c2.717,0,4.488,1.7,4.488,4.238V.534c0,2.543-1.77,4.238-4.488,4.238M3.786-7.194A2.234,2.234,0,0,0,1.542-9.436H.793A2.234,2.234,0,0,0-1.451-7.194V.534A2.235,2.235,0,0,0,.793,2.778h.748A2.235,2.235,0,0,0,3.786.534Z" transform="translate(3.693 11.432)" fill="#1a1a1a"></path>
    </g>
    <g id="Group_166" data-name="Group 166" transform="translate(70.186 22.241)">
      <path id="Path_276" data-name="Path 276" d="M2.908,4.567c0,.125-.1.2-.249.2H.739L.515,4.591-1.8-2.064l-.2-.15H-4.472c-.174,0-.249.075-.249.249V4.517c0,.174-.074.249-.248.249H-6.716c-.174,0-.249-.075-.249-.249V-10.691c0-.174.075-.248.249-.248h4.987A4.189,4.189,0,0,1,2.759-6.453V-6.2A4.145,4.145,0,0,1,1.337-3.361c-.448.424-.9.5-.9.748a.091.091,0,0,0,.026.075l2.417,6.98a.221.221,0,0,1,.026.125M.515-6.7A2.234,2.234,0,0,0-1.729-8.945H-4.472c-.174,0-.249.075-.249.248v4.238c0,.176.075.249.249.249h2.743A2.235,2.235,0,0,0,.515-6.453Z" transform="translate(6.965 10.939)" fill="#1a1a1a"></path>
    </g>
    <g id="Group_167" data-name="Group 167" transform="translate(82.675 21.992)">
      <path id="Path_277" data-name="Path 277" d="M2.768,4.016A3.2,3.2,0,0,1,1.72,5.537,4.4,4.4,0,0,1-1.4,6.583h-.748c-2.717,0-4.486-1.694-4.486-4.237V-5.382c0-2.543,1.769-4.238,4.486-4.238H-1.4c2.442,0,4.138,1.545,4.138,2.517a.234.234,0,0,1-.149.2L1-6.1a.264.264,0,0,1-.125.026c-.1,0-.125-.051-.2-.15C.1-7-.324-7.626-1.4-7.626h-.748A2.235,2.235,0,0,0-4.388-5.382V2.346A2.235,2.235,0,0,0-2.144,4.59H-1.4A1.83,1.83,0,0,0-.049,4.066C.5,3.418.724,2.994.9,2.994a.363.363,0,0,1,.149.05l1.571.8c.1.05.15.1.15.174" transform="translate(6.63 9.62)" fill="#1a1a1a"></path>
    </g>
    <g id="Group_168" data-name="Group 168" transform="translate(94.391 22.241)">
      <path id="Path_278" data-name="Path 278" d="M2.9,4.625H1.155c-.176,0-.249-.075-.249-.249V-2.106a.224.224,0,0,0-.249-.249h-5.11c-.174,0-.249.075-.249.249V4.376c0,.174-.075.249-.249.249H-6.7c-.174,0-.249-.075-.249-.249V-10.831c0-.174.075-.249.249-.249h1.745a.224.224,0,0,1,.249.249V-4.6c0,.174.075.249.249.249H.656c.174,0,.249-.075.249-.249v-6.233c0-.174.074-.249.249-.249H2.9c.174,0,.249.075.249.249V4.376c0,.174-.075.249-.249.249" transform="translate(6.947 11.08)" fill="#1a1a1a"></path>
    </g>
    <g id="Group_169" data-name="Group 169" transform="translate(107.979 22.241)">
      <path id="Path_279" data-name="Path 279" d="M2.569,4.625H-5.907c-.174,0-.248-.075-.248-.249V-10.831c0-.174.074-.249.248-.249H2.569a.224.224,0,0,1,.249.249v1.5c0,.174-.075.249-.249.249H-3.663c-.174,0-.249.075-.249.249V-4.6c0,.174.075.249.249.249H1.448c.174,0,.248.075.248.248v1.5c0,.174-.074.248-.248.248H-3.663c-.174,0-.249.075-.249.249V2.382c0,.174.075.249.249.249H2.569a.224.224,0,0,1,.249.249v1.5c0,.174-.075.249-.249.249" transform="translate(6.155 11.08)" fill="#1a1a1a"></path>
    </g>
    <g id="Group_170" data-name="Group 170" transform="translate(118.523 21.991)">
      <path id="Path_280" data-name="Path 280" d="M.749,1.248c0,1.347,1.222,1.82,3.242,2.768,2.642,1.22,3.888,2.517,3.888,4.96,0,2.517-1.77,4.238-4.488,4.238H2.345a4.6,4.6,0,0,1-2.717-.723c-.972-.748-1.422-1.446-1.422-1.846,0-.074.051-.123.15-.173l1.571-.8a.407.407,0,0,1,.125-.051c.1,0,.149.075.224.174.573.774.923,1.422,2.069,1.422H3.391A2.25,2.25,0,0,0,5.635,8.976c0-1.42-1.072-2.044-3.016-2.941C-.049,4.789-1.495,3.791-1.495,1.248S.275-2.99,2.993-2.99h.4C5.835-2.99,7.53-1.418,7.53-.471a.235.235,0,0,1-.149.2l-1.6.8A.264.264,0,0,1,5.66.551c-.1,0-.125-.05-.2-.15-.574-.773-1-1.395-2.069-1.395h-.4A2.233,2.233,0,0,0,.749,1.248" transform="translate(1.794 2.99)" fill="#1a1a1a"></path>
    </g>
    <g id="Group_171" data-name="Group 171" transform="translate(129.045 22.241)">
      <path id="Path_281" data-name="Path 281" d="M2.569.587H-.3c-.176,0-.251.075-.251.249V14.049c0,.174-.074.249-.248.249H-2.54c-.176,0-.251-.075-.251-.249V.837c0-.174-.074-.249-.248-.249H-5.907c-.174,0-.248-.075-.248-.249v-1.5c0-.176.074-.249.248-.249H2.569c.174,0,.249.074.249.249v1.5c0,.174-.075.249-.249.249" transform="translate(6.155 1.407)" fill="#1a1a1a"></path>
    </g>
    <g id="Group_172" data-name="Group 172" transform="translate(140.138 22.241)">
      <path id="Path_282" data-name="Path 282" d="M2.907,4.567c0,.125-.1.2-.249.2H.738L.515,4.591-1.8-2.064l-.2-.15H-4.472c-.174,0-.248.075-.248.249V4.517c0,.174-.075.249-.251.249H-6.716c-.173,0-.248-.075-.248-.249V-10.691c0-.174.075-.248.248-.248h4.987A4.188,4.188,0,0,1,2.758-6.453V-6.2A4.139,4.139,0,0,1,1.337-3.361c-.448.424-.9.5-.9.748a.091.091,0,0,0,.026.075l2.417,6.98a.221.221,0,0,1,.026.125M.515-6.7A2.234,2.234,0,0,0-1.729-8.945H-4.472c-.174,0-.248.075-.248.248v4.238c0,.176.074.249.248.249h2.743A2.235,2.235,0,0,0,.515-6.453Z" transform="translate(6.964 10.939)" fill="#1a1a1a"></path>
    </g>
    <g id="Group_173" data-name="Group 173" transform="translate(150.758 22.241)">
      <path id="Path_283" data-name="Path 283" d="M3.289,4.559c0,.15-.1.225-.274.225H1.146A.225.225,0,0,1,.9,4.609l-.923-3.29c-.024-.125-.1-.15-.249-.15H-4.314c-.149,0-.224.026-.249.15l-.923,3.29a.223.223,0,0,1-.248.176H-7.6c-.176,0-.275-.075-.275-.225,0-.026.026-.05.026-.1l4.637-15.206c.024-.125.1-.174.249-.174h1.347a.239.239,0,0,1,.248.174L3.265,4.46c0,.05.024.074.024.1m-5.235-10.4c-.075-.248-.174-.622-.3-1.1h-.1l-.3,1.123-1.22,4.662c0,.05-.026.075-.026.1,0,.15.1.224.274.224H-1c.176,0,.274-.074.274-.224,0-.024-.024-.075-.024-.1Z" transform="translate(7.879 10.921)" fill="#1a1a1a"></path>
    </g>
    <g id="Group_174" data-name="Group 174" transform="translate(113.54 41.598)">
      <path id="Path_284" data-name="Path 284" d="M18.144,2.552a4.357,4.357,0,0,1-1.05,1.9,11.306,11.306,0,0,1-1.352,1.317,8.333,8.333,0,0,1-1.228.962l-.41.159a.249.249,0,0,1-.125-.035c-.054-.017-.125-.071-.071-.16l.534-.836A11.928,11.928,0,0,1,15.3,4.847a16.211,16.211,0,0,1,2.527-2.276ZM30.139.043a1.34,1.34,0,0,0-.89-.855c-1.015,0-2.473,4.075-2.544,4.431-.143.3-2.972,3.239-4.075,3.239-.765-1.157,1.084-2.829,1.084-3.185-.088-.125-.177-.249-.283-.374a1.047,1.047,0,0,0-.641-.391.566.566,0,0,0-.445.32,10.951,10.951,0,0,1-3.47,3.239,1.35,1.35,0,0,1-.322-.73C18.5,4.6,19.977,3.282,19.923,2.3a6.212,6.212,0,0,0-.89-.356c-.676-.2.054-.943-1-.89-1.1.054-2.617,1.639-3.24,2.367Q13.437,5,13.037,5.56a6.222,6.222,0,0,0-.588.961,1.479,1.479,0,0,0-.177.712,1.448,1.448,0,0,0,.605.926,1.145,1.145,0,0,0,.872.248A3.734,3.734,0,0,0,15.636,7.5c.693-.5,1.086-.978,1.583-1.334.249.391.819,1.583,1.833,1.529.765-.052,1.211-.551,2.065-1.157A1.781,1.781,0,0,0,22.9,7.927a13.763,13.763,0,0,0,3.133-1.941.857.857,0,0,1,.088.481c0,1.531-1.334,9.111-5.195,9.111a4.914,4.914,0,0,1-.855-.125c-1.816-.427-3.809-3.239-3.719-4.876C16.4,9.44,17.414,9.173,17.61,8.6c.054-.2-.285-.356-.481-.356A2.619,2.619,0,0,0,14.976,10.2c0,2.35,3.114,6.371,5.98,6.371a2.239,2.239,0,0,0,.319-.017.59.59,0,0,0,.179-.018A4.847,4.847,0,0,0,24.995,14.4a19,19,0,0,0,1.78-4.822c.285-1,.5-2.42.693-3.452a14.651,14.651,0,0,1,1.745-4.716A11.644,11.644,0,0,0,30.139.043M4.975,1.271A7.033,7.033,0,0,1,1.79,3.78,11.283,11.283,0,0,1-2.071,4.955a15,15,0,0,1-1.585-.16.062.062,0,0,1-.052-.018.25.25,0,0,1-.035-.16,3.484,3.484,0,0,1,.712-1.529C-.738,2.018,2.218,1.77,4.975,1.271M12.218-2.75a.784.784,0,0,1-.356.587c-.2.125-.57.32-1.121.605.445-.516.712-1.1,1.086-1.477.089-.035.179,0,.266.106a.641.641,0,0,1,.125.179M13.98,5.044c0-.108-.071-.464-.391-.374-.285.641-3.133,3.453-4.2,3.453-.658,0-.89-1.905-.89-2.261A17.5,17.5,0,0,1,10.261-.1c1.317-.462,2.989-1.352,3.22-2.295.143-.605-1.174-1.941-1.939-1.941-1.175,0-2.384,3.293-2.527,3.364a8.731,8.731,0,0,1-2.561.784,2.757,2.757,0,0,0-.322-1.229c-.052-.088-.2-.142-.248-.231C5.813-2.43,3.427-4.637,2.894-4.637c-.2,0-.108.071-.179.16C2.5-5.421-.933-6.114-2.125-6.114c-.836,0-3.133.337-3.133,1.637,0,.018.2,1.049.873,1.049a.519.519,0,0,0,.16-.017c.071-.017.16-.052.177-.142.2-1.281,1.976-1.406,3.008-1.354A8.346,8.346,0,0,1,4.388-2.217a4.17,4.17,0,0,1,.8,2.332c-1.85.445-3.63.659-5.392,1-.214.054-.374.339-.534.339s-.249-.143-.408-.143a7,7,0,0,1-1.3.249C-2.446,1.414-.7-2.821-.7-3.339c0-.285-.8-.926-1.209-.926-.2,0-.143.108-.232.179a9.025,9.025,0,0,1-.712,3.062A26.137,26.137,0,0,1-4.1,2a6.662,6.662,0,0,0-.658.551,2.127,2.127,0,0,0-.695,1.032,1.669,1.669,0,0,0,.179.89c.213.214-1.388,4.182-1.246,4.182.2,0,.427.374,1.015.285a32.813,32.813,0,0,1,1.459-3.63c.2,0,.16.249.179.3a4.554,4.554,0,0,0,1.975.354C2,5.6,3.943,4.314,5.42,2.927A4.308,4.308,0,0,0,6.577.861C7.414.63,8.09.47,8.569.345A22.035,22.035,0,0,0,7.075,5.506a4.907,4.907,0,0,0,1.049,2.9,2.87,2.87,0,0,0,1.531.89c1.3-.088,3.08-1.814,3.933-3.31a4.187,4.187,0,0,0,.391-.943M-12.2,1.537c0-1.032-1.442-1.69-2.207-1.69-1.049,0-2.58.2-2.634,2.207-.071.427.659,4.573.588,5a1.313,1.313,0,0,1-1.371,1.46c-.16,0-.624-.249-.624-.587,0-.2.357-.428.374-.624,0-.16-.017-.177-.142-.249a.98.98,0,0,0-.5.035,1.344,1.344,0,0,0-.57.676c-.052,1.121,1.246,1.888,2.118,1.941a1.832,1.832,0,0,0,2.1-1.887c0-1.423-.659-4.485-.659-4.893-.088-1.371.32-1.905,1.531-1.887.054,0,.462.052.462.3,0,.2-.533.713-.533.89a.618.618,0,0,0,.622.5l.285.035c.57,0,1.157-1.069,1.157-1.229m-5.392-6.53a.874.874,0,0,0-.926-.676c-.658,0-1.281,2.954-1.281,3.22,0,.427.037.872.695.872.018,0,.337-.035.41-.2a5.9,5.9,0,0,1,.73-2.295,5.159,5.159,0,0,0,.373-.926m-1.442,6.638a.4.4,0,0,0-.052-.285,8.046,8.046,0,0,0-1.851-.018c-.179,0-2.118.214-2.3.214-.088,0-.283.035-.445.054l-.3.035,2.794-5.766c0-.285-.695-.907-.872-.907-.249,0-1.673,2.936-2.332,4.768A7.658,7.658,0,0,1-24.939.915c-.16.337-.285.57-.373.73-.054.106-.126.2-.179.283-.765.286-1.851.393-1.993.678,0,.853.907,1.369.907,1.637,0,.551-1.05,2.01-1.05,3.256,0,.32.232,1.211.588,1.388l.125.054a.3.3,0,0,0,.266-.054,14.159,14.159,0,0,0,1.174-3.22c-.283-.427.393-1.583.765-2.207.16-.266.713-.337.944-.427a28.832,28.832,0,0,1,3.47-.782c.356-.054,1.157-.249,1.211-.445Zm-12.35.391c.037.356-.889.73-1.032,1.211l-.2-.035-.551.462c.285-.712,1.228-1.637,1.529-1.637Zm-3.736,4.858A3.786,3.786,0,0,0-32,9.475a3.536,3.536,0,0,0,2.349-.659,9.616,9.616,0,0,0,2.118-1.975,8.507,8.507,0,0,0,.961-1.423l-.017-.339c-.035-.106-.125-.143-.268-.089-.142.16-.408.428-.782.8a9.254,9.254,0,0,1-.961.872l-.89.676a3.865,3.865,0,0,1-2.617.872A2.456,2.456,0,0,1-33.89,6.147c0-.2-.035-.676.16-.836.445-.374,3.79-1.868,3.79-3.364A1.309,1.309,0,0,0-31.274.595a3.336,3.336,0,0,0-.944.231A3.523,3.523,0,0,0-33,1.342a7.146,7.146,0,0,0-2.082,3.1c-.125.445-4.824,1.726-5.677,1.939-.16.054-.516.125-.587.054.427-1.192.853-2.153,1.157-2.919.568-1.281,1.281-2.972,1.8-4.023.374-.8,1.993-3.63,1.993-3.7a1.148,1.148,0,0,0-.89-.872c-1.121,0-6.174,13.009-6.174,13.116,0,.16.676,1.032,1.138.979.391-.054.695-.838,1.1-1.015,1.87-.909,4.058-1.46,5.926-2.172a4.744,4.744,0,0,0,.179,1.067" transform="translate(43.464 6.114)" fill="#1a1a1a"></path>
    </g>
  </g>
</svg>
