<?xml version="1.0" encoding="UTF-8"?>
<svg xmlns="http://www.w3.org/2000/svg" xmlns:xlink="http://www.w3.org/1999/xlink" width="200px" height="48px" viewBox="0 0 196.513 47.914">
  <defs>
    <clipPath id="clip-path">
      <path id="Path_259" data-name="Path 259" d="M0-39.63H196.513V-87.544H0Z" transform="translate(0 87.544)" fill="#1a1a1a"></path>
    </clipPath>
  </defs>
  <g id="translink-logo" clip-path="url(#clip-path)">
    <path id="Path_258" data-name="Path 258" d="M-52.035-15.417h-7.908v-4.869H-38.6v4.869h-7.87V4.133h-5.565ZM-40,4.132h5.272V-4.361a4.205,4.205,0,0,1,1.153-3.167,4.163,4.163,0,0,1,3.021-1.117,6.3,6.3,0,0,1,1.9.256l.842-4.649a4.555,4.555,0,0,0-.97-.256,8.3,8.3,0,0,0-1.19-.073,5.1,5.1,0,0,0-2.984.805,7.889,7.889,0,0,0-1.812,1.684l-.183-2.16H-40Zm23.527-6.187a2.669,2.669,0,0,1-.293,1.281,2.894,2.894,0,0,1-.75.916,3.4,3.4,0,0,1-1.062.567,3.852,3.852,0,0,1-1.226.2q-2.563,0-2.563-2.124a2,2,0,0,1,.915-1.756,5.767,5.767,0,0,1,3.112-.623,11.245,11.245,0,0,1,1.171.055c.342.037.573.068.7.091Zm.146,6.187h4.943V-5.862a8.215,8.215,0,0,0-1.868-5.657q-1.866-2.1-5.783-2.1a16.567,16.567,0,0,0-2.728.2,13.385,13.385,0,0,0-2.142.531,9.438,9.438,0,0,0-1.647.733,13.806,13.806,0,0,0-1.245.8l2.16,3.222a9.458,9.458,0,0,1,1.958-.989,8.268,8.268,0,0,1,2.91-.439,5.853,5.853,0,0,1,1.245.129,2.981,2.981,0,0,1,1.044.439,2.449,2.449,0,0,1,.732.769,2.132,2.132,0,0,1,.275,1.117v.366a7.617,7.617,0,0,0-1.227-.11q-.934-.036-1.848-.037a11.618,11.618,0,0,0-3.131.4,7.594,7.594,0,0,0-2.508,1.19,5.6,5.6,0,0,0-1.665,1.958,5.742,5.742,0,0,0-.6,2.673A5.226,5.226,0,0,0-26.891,1.9a4.76,4.76,0,0,0,1.427,1.629,5.639,5.639,0,0,0,1.867.86,7.814,7.814,0,0,0,1.922.256A7.8,7.8,0,0,0-18.691,4.1a5.736,5.736,0,0,0,2.215-1.575Zm8.014,0h5.235V-5.094A4.672,4.672,0,0,1-2.862-6.54,3.458,3.458,0,0,1-2.2-7.73a3.264,3.264,0,0,1,1.1-.823A3.566,3.566,0,0,1,.433-8.864a2.475,2.475,0,0,1,2,.842,3.4,3.4,0,0,1,.714,2.269V4.132H8.415V-6.485a7.1,7.1,0,0,0-1.739-5.2A6.324,6.324,0,0,0,1.971-13.44,6.9,6.9,0,0,0-.9-12.819a6.031,6.031,0,0,0-2.214,1.648l-.147-1.867H-8.316Zm18.6-1.94a7.827,7.827,0,0,0,3.331,1.9,14.959,14.959,0,0,0,4.357.622,11.935,11.935,0,0,0,2.8-.329,8.148,8.148,0,0,0,2.453-1.007,5.35,5.35,0,0,0,1.721-1.7,4.537,4.537,0,0,0,.64-2.454,4.805,4.805,0,0,0-1.19-3.4,8.1,8.1,0,0,0-3.825-2.014q-1.941-.512-3.075-.915T16.359-8.352a1.063,1.063,0,0,1,.548-.934,3.4,3.4,0,0,1,1.757-.348,6.425,6.425,0,0,1,2.434.439,11.332,11.332,0,0,1,1.922.989l2.233-3.479a10.885,10.885,0,0,0-3.039-1.446,13.446,13.446,0,0,0-3.844-.494,10.354,10.354,0,0,0-2.873.384,7.219,7.219,0,0,0-2.306,1.1,5.366,5.366,0,0,0-1.52,1.685,4.343,4.343,0,0,0-.548,2.178,4.372,4.372,0,0,0,.457,2.05,4.8,4.8,0,0,0,1.208,1.5,7.077,7.077,0,0,0,1.721,1.044,13.26,13.26,0,0,0,1.958.677q1.208.33,2,.587a7.585,7.585,0,0,1,1.227.494,1.529,1.529,0,0,1,.6.513,1.153,1.153,0,0,1,.165.6A1.113,1.113,0,0,1,19.69.325a5.515,5.515,0,0,1-1.941.292A7.56,7.56,0,0,1,15.1.1,6.742,6.742,0,0,1,12.88-1.176Zm17.387,1.94H32.94V-20.286H27.668Zm8.524,0h5.272v-17.17H36.192Zm-.183-19.7h5.638v-4.723H36.009Zm8.581,19.7h5.235V-5.094a4.672,4.672,0,0,1,.219-1.446,3.44,3.44,0,0,1,.66-1.19,3.251,3.251,0,0,1,1.1-.823,3.566,3.566,0,0,1,1.537-.311,2.476,2.476,0,0,1,2,.842,3.4,3.4,0,0,1,.714,2.269V4.132h5.272V-6.485a7.1,7.1,0,0,0-1.739-5.2,6.323,6.323,0,0,0-4.705-1.756A6.894,6.894,0,0,0,52-12.819a6.028,6.028,0,0,0-2.215,1.648l-.147-1.867H44.591Zm19.659,0h5.272V-1.542L71.06-3.117l4.393,7.249h6.114L74.574-6.7l6.15-6.333H74.757L69.522-7.619V-20.287H64.25Zm-154.6-37.375,15.486,8.94a6.075,6.075,0,0,1,3.038,5.262V-1.16A6.075,6.075,0,0,1-74.861,4.1l-15.486,8.94a6.076,6.076,0,0,1-6.076,0L-111.908,4.1a6.076,6.076,0,0,1-3.038-5.262V-19.041a6.076,6.076,0,0,1,3.038-5.262l15.486-8.94a6.076,6.076,0,0,1,6.076,0m-5.8,37.376h5.565v-19.55h7.87v-4.869h-21.342v4.869h7.908Z" transform="translate(114.946 34.058)" fill="#1a1a1a"></path>
  </g>
</svg>
