<svg xmlns="http://www.w3.org/2000/svg" width="18" height="15.121" viewBox="0 0 18 15.121">
  <g id="headingWeight" transform="translate(0 -1.439)">
    <path id="Path_341" data-name="Path 341" d="M2.949-8.976V-12.06l1.478-.45v3.534H8.239v1.328H4.427v6.554q0,2.249,2.056,2.249A6.662,6.662,0,0,0,8.218.876V2.332a8.08,8.08,0,0,1-1.906.257A4.194,4.194,0,0,1,4.031,1.9Q2.949,1.219,2.949-1.073V-7.648H.486V-8.976Z" transform="translate(-0.486 13.949)"/>
    <path id="Path_340" data-name="Path 340" d="M.54-9H2.468v-2.484l3.063-.878V-9H8.807v2.677H5.53v4.862a.933.933,0,0,0,.364.75,1.381,1.381,0,0,0,.782.332q.418.032.5.032A5.1,5.1,0,0,0,8.957-.758v3a8.433,8.433,0,0,1-2.27.343,5.988,5.988,0,0,1-2.763-.76q-1.456-.76-1.456-3.266V-6.326H.54Z" transform="translate(9.043 13.977)"/>
  </g>
</svg>
